<svg xmlns="http://www.w3.org/2000/svg" viewBox="0 0 900 600" role="img" aria-label="Иллюстрация: разбор карточки">
  <defs>
    <linearGradient id="bg" x1="0" y1="0" x2="1" y2="1">
      <stop offset="0" stop-color="#0b1020"/>
      <stop offset="1" stop-color="#070b14"/>
    </linearGradient>
    <linearGradient id="card" x1="0" y1="0" x2="0" y2="1">
      <stop offset="0" stop-color="rgba(255,255,255,0.10)"/>
      <stop offset="1" stop-color="rgba(255,255,255,0.06)"/>
    </linearGradient>
    <radialGradient id="glow" cx="70%" cy="30%" r="65%">
      <stop offset="0" stop-color="#49d0ff" stop-opacity="0.28"/>
      <stop offset="1" stop-color="#49d0ff" stop-opacity="0"/>
    </radialGradient>
  </defs>

  <rect x="0" y="0" width="900" height="600" rx="36" fill="url(#bg)"/>
  <rect x="0" y="0" width="900" height="600" rx="36" fill="url(#glow)"/>

  <!-- Map grid -->
  <g opacity="0.55">
    <path d="M90 130 H810" stroke="rgba(255,255,255,0.10)" stroke-width="2"/>
    <path d="M90 210 H810" stroke="rgba(255,255,255,0.10)" stroke-width="2"/>
    <path d="M90 290 H810" stroke="rgba(255,255,255,0.10)" stroke-width="2"/>
    <path d="M90 370 H810" stroke="rgba(255,255,255,0.10)" stroke-width="2"/>
    <path d="M90 450 H810" stroke="rgba(255,255,255,0.10)" stroke-width="2"/>
    <path d="M210 90 V510" stroke="rgba(255,255,255,0.10)" stroke-width="2"/>
    <path d="M330 90 V510" stroke="rgba(255,255,255,0.10)" stroke-width="2"/>
    <path d="M450 90 V510" stroke="rgba(255,255,255,0.10)" stroke-width="2"/>
    <path d="M570 90 V510" stroke="rgba(255,255,255,0.10)" stroke-width="2"/>
    <path d="M690 90 V510" stroke="rgba(255,255,255,0.10)" stroke-width="2"/>
  </g>

  <!-- Big card -->
  <g>
    <rect x="140" y="150" width="620" height="320" rx="28" fill="url(#card)" stroke="rgba(255,255,255,0.10)" stroke-width="2"/>
    <rect x="170" y="190" width="260" height="24" rx="12" fill="rgba(255,255,255,0.10)"/>
    <rect x="170" y="230" width="380" height="18" rx="9" fill="rgba(255,255,255,0.06)"/>
    <rect x="170" y="260" width="330" height="18" rx="9" fill="rgba(255,255,255,0.06)"/>
    <rect x="170" y="290" width="410" height="18" rx="9" fill="rgba(255,255,255,0.06)"/>
    <rect x="170" y="340" width="220" height="36" rx="18" fill="#7aa2ff" opacity="0.95"/>

    <!-- Pin -->
    <g transform="translate(600 210)">
      <path d="M0 92c0 24 34 72 34 72s34-48 34-72a34 34 0 1 0-68 0z" fill="#49d0ff" opacity="0.95"/>
      <circle cx="34" cy="92" r="16" fill="#070b14" opacity="0.92"/>
    </g>

    <!-- Logo badge -->
    <g transform="translate(185 330)">
      <rect x="0" y="0" width="86" height="86" rx="22" fill="rgba(255,255,255,0.10)" stroke="rgba(255,255,255,0.10)" stroke-width="2"/>
      <g transform="translate(11 11) scale(0.125)">
        <g transform="translate(0.000000,512.000000) scale(0.100000,-0.100000)"
fill="#ffffff" stroke="none">
<path d="M2430 4710 c-294 -25 -553 -115 -812 -283 -98 -64 -110 -73 -178
-137 -67 -63 -64 -60 -112 -114 -23 -27 -54 -61 -69 -75 -25 -26 -102 -152
-177 -292 -46 -86 -102 -252 -127 -379 -79 -403 37 -846 314 -1200 87 -111
160 -186 356 -369 266 -249 343 -333 459 -506 91 -135 110 -167 150 -251 10
-21 31 -64 46 -94 15 -30 44 -100 64 -155 21 -55 44 -113 51 -130 7 -16 24
-72 39 -124 55 -189 107 -239 175 -167 21 23 44 79 116 291 19 55 44 127 55
160 41 119 187 400 252 485 146 192 241 293 494 522 194 177 339 338 412 458
137 227 201 397 238 630 31 197 7 444 -64 665 -26 80 -94 226 -125 267 -14 18
-35 53 -47 78 -13 25 -40 63 -61 85 -22 22 -39 43 -39 47 0 11 -148 155 -225
217 -85 69 -187 142 -235 166 -124 63 -165 80 -283 119 -218 72 -461 103 -667
86z m460 -348 c436 -113 774 -427 903 -838 57 -181 62 -453 12 -634 -130 -472
-556 -834 -1061 -901 -113 -15 -365 -6 -464 16 -518 116 -906 509 -985 999
-90 552 238 1097 792 1315 155 61 286 81 503 77 166 -3 197 -7 300 -34z"/>
<path d="M1640 3225 l0 -565 115 0 115 0 0 383 c0 210 0 387 0 392 0 6 10 -7
23 -28 12 -22 79 -125 149 -230 69 -106 174 -265 232 -354 l105 -163 121 0
120 0 0 565 0 565 -110 0 -110 0 -1 -357 c-1 -197 -3 -365 -4 -373 -1 -8 -3
-19 -4 -25 -1 -5 -9 4 -18 20 -9 17 -121 189 -249 383 l-233 352 -126 0 -125
0 0 -565z"/>
<path d="M2730 3226 l0 -566 120 0 120 0 0 190 0 190 123 0 c197 0 314 36 396
120 156 161 119 462 -69 564 -97 53 -134 58 -422 63 l-268 5 0 -566z m493 353
c59 -16 107 -66 117 -120 17 -89 -15 -158 -90 -196 -39 -20 -60 -23 -162 -23
l-118 0 0 175 0 175 108 0 c59 0 124 -5 145 -11z"/>
</g>
      </g>
    </g>
  </g>

  <!-- Small sparkles -->
  <g opacity="0.65">
    <circle cx="770" cy="120" r="4" fill="#49d0ff"/>
    <circle cx="720" cy="480" r="3" fill="#49d0ff"/>
    <circle cx="120" cy="510" r="3" fill="#49d0ff"/>
  </g>
</svg>
