<svg xmlns="http://www.w3.org/2000/svg" width="600" height="420" viewBox="0 0 600 420" fill="none">
  <!-- subtle rings -->
  <circle cx="420" cy="180" r="140" stroke="#0C0F16" stroke-opacity="0.10"/>
  <circle cx="420" cy="180" r="95" stroke="#0C0F16" stroke-opacity="0.08"/>
  <circle cx="420" cy="180" r="52" stroke="#0C0F16" stroke-opacity="0.06"/>

  <!-- floating cards -->
  <rect x="70" y="110" width="190" height="120" rx="22" fill="#FFFFFF" opacity="0.82"/>
  <rect x="70" y="110" width="190" height="120" rx="22" stroke="#0C0F16" stroke-opacity="0.10"/>
  <rect x="92" y="136" width="92" height="12" rx="6" fill="#0C0F16" opacity="0.16"/>
  <rect x="92" y="158" width="138" height="10" rx="5" fill="#0C0F16" opacity="0.10"/>
  <rect x="92" y="176" width="120" height="10" rx="5" fill="#0C0F16" opacity="0.10"/>

  <rect x="210" y="60" width="200" height="140" rx="24" fill="#FFFFFF" opacity="0.86"/>
  <rect x="210" y="60" width="200" height="140" rx="24" stroke="#0C0F16" stroke-opacity="0.10"/>
  <rect x="234" y="92" width="150" height="14" rx="7" fill="#0C0F16" opacity="0.16"/>
  <rect x="234" y="118" width="168" height="10" rx="5" fill="#0C0F16" opacity="0.10"/>
  <rect x="234" y="138" width="120" height="10" rx="5" fill="#0C0F16" opacity="0.10"/>
  <g opacity="0.35" fill="#0C0F16">
    <path d="M360 164l4 8 9 1-6 6 1 9-8-4-8 4 1-9-6-6 9-1 4-8Z"/>
    <path d="M382 166l3 6 7 1-5 5 1 7-6-3-6 3 1-7-5-5 7-1 3-6Z" opacity="0.7"/>
  </g>

  <rect x="300" y="210" width="230" height="150" rx="26" fill="#FFFFFF" opacity="0.86"/>
  <rect x="300" y="210" width="230" height="150" rx="26" stroke="#0C0F16" stroke-opacity="0.10"/>
  <rect x="326" y="242" width="160" height="14" rx="7" fill="#0C0F16" opacity="0.16"/>
  <rect x="326" y="270" width="186" height="10" rx="5" fill="#0C0F16" opacity="0.10"/>
  <rect x="326" y="288" width="150" height="10" rx="5" fill="#0C0F16" opacity="0.10"/>
  <rect x="326" y="312" width="120" height="34" rx="17" fill="#0C0F16" opacity="0.05"/>
  <circle cx="346" cy="329" r="7" fill="#34C759" opacity="0.95"/>

  <!-- arrows -->
  <path d="M255 140c30-20 55-26 85-30" stroke="#0C0F16" stroke-opacity="0.18" stroke-width="2" stroke-linecap="round"/>
  <path d="M338 104l8 2-5 6" stroke="#0C0F16" stroke-opacity="0.18" stroke-width="2" stroke-linecap="round" stroke-linejoin="round"/>

  <path d="M360 214c-10-30-10-52 10-78" stroke="#0C0F16" stroke-opacity="0.18" stroke-width="2" stroke-linecap="round"/>
  <path d="M374 142l2-8 6 5" stroke="#0C0F16" stroke-opacity="0.18" stroke-width="2" stroke-linecap="round" stroke-linejoin="round"/>

  <!-- pin -->
  <path d="M430 190c0-20-16-36-36-36s-36 16-36 36c0 14 9 27 22 33l14 27 14-27c13-6 22-19 22-33Z" fill="#FF3B30" opacity="0.92"/>
  <circle cx="394" cy="188" r="10" fill="#FFFFFF" opacity="0.92"/>
</svg>
