<svg xmlns="http://www.w3.org/2000/svg" width="900" height="520" viewBox="0 0 900 520" fill="none">
<circle cx="760" cy="120" r="150" fill="#0C0F16" opacity="0.06"/>
<circle cx="820" cy="420" r="210" fill="#0C0F16" opacity="0.05"/>
<circle cx="520" cy="470" r="170" fill="#0C0F16" opacity="0.04"/>
<rect x="150" y="150" width="230.0" height="260.0" rx="32" fill="#FFFFFF" opacity="0.55"/>
<rect x="150" y="150" width="230.0" height="260.0" rx="32" stroke="#0C0F16" stroke-opacity="0.06"/>
<rect x="174" y="188" width="182.0" height="18" rx="9" fill="#0C0F16" opacity="0.14"/>
<rect x="174" y="222" width="160.0" height="14" rx="7" fill="#0C0F16" opacity="0.10"/>
<rect x="174" y="246" width="142.0" height="14" rx="7" fill="#0C0F16" opacity="0.10"/>
<circle cx="188" cy="366.0" r="6" fill="#FFCC00" opacity="0.45"/>
<circle cx="206" cy="366.0" r="6" fill="#FFCC00" opacity="0.45"/>
<circle cx="224" cy="366.0" r="6" fill="#FFCC00" opacity="0.45"/>
<circle cx="242" cy="366.0" r="6" fill="#FFCC00" opacity="0.45"/>
<circle cx="260" cy="366.0" r="6" fill="#FFCC00" opacity="0.45"/>
<rect x="300" y="110" width="241.5" height="273.0" rx="32" fill="#FFFFFF" opacity="0.78"/>
<rect x="300" y="110" width="241.5" height="273.0" rx="32" stroke="#0C0F16" stroke-opacity="0.1"/>
<rect x="324" y="148" width="193.5" height="18" rx="9" fill="#0C0F16" opacity="0.14"/>
<rect x="324" y="182" width="171.5" height="14" rx="7" fill="#0C0F16" opacity="0.10"/>
<rect x="324" y="206" width="153.5" height="14" rx="7" fill="#0C0F16" opacity="0.10"/>
<circle cx="338" cy="339.0" r="6" fill="#FFCC00" opacity="0.75"/>
<circle cx="356" cy="339.0" r="6" fill="#FFCC00" opacity="0.75"/>
<circle cx="374" cy="339.0" r="6" fill="#FFCC00" opacity="0.75"/>
<circle cx="392" cy="339.0" r="6" fill="#FFCC00" opacity="0.75"/>
<circle cx="410" cy="339.0" r="6" fill="#FFCC00" opacity="0.75"/>
<rect x="470" y="170" width="230.0" height="260.0" rx="32" fill="#FFFFFF" opacity="0.55"/>
<rect x="470" y="170" width="230.0" height="260.0" rx="32" stroke="#0C0F16" stroke-opacity="0.06"/>
<rect x="494" y="208" width="182.0" height="18" rx="9" fill="#0C0F16" opacity="0.14"/>
<rect x="494" y="242" width="160.0" height="14" rx="7" fill="#0C0F16" opacity="0.10"/>
<rect x="494" y="266" width="142.0" height="14" rx="7" fill="#0C0F16" opacity="0.10"/>
<circle cx="508" cy="386.0" r="6" fill="#FFCC00" opacity="0.45"/>
<circle cx="526" cy="386.0" r="6" fill="#FFCC00" opacity="0.45"/>
<circle cx="544" cy="386.0" r="6" fill="#FFCC00" opacity="0.45"/>
<circle cx="562" cy="386.0" r="6" fill="#FFCC00" opacity="0.45"/>
<circle cx="580" cy="386.0" r="6" fill="#FFCC00" opacity="0.45"/>
<rect x="292" y="102" width="252" height="284" rx="38" stroke="#34C759" stroke-width="8" opacity="0.85"/>
<circle cx="540" cy="118" r="26" fill="#34C759" opacity="0.95"/>
<path d="M528 118l8 8 16-18" stroke="#FFFFFF" stroke-width="6" stroke-linecap="round" stroke-linejoin="round" opacity="0.95"/>
</svg>