<svg xmlns="http://www.w3.org/2000/svg" width="900" height="520" viewBox="0 0 900 520" fill="none">
<circle cx="760" cy="120" r="150" fill="#FFFFFF" opacity="0.05"/>
<circle cx="820" cy="420" r="210" fill="#FFFFFF" opacity="0.04"/>
<circle cx="520" cy="470" r="170" fill="#FFFFFF" opacity="0.03"/>
<rect x="210" y="100" width="440" height="320" rx="34" fill="#FFFFFF" opacity="0.06"/>
<rect x="210" y="100" width="440" height="320" rx="34" stroke="#FFFFFF" stroke-opacity="0.10"/>
<rect x="240" y="132" width="220" height="16" rx="8" fill="#FFFFFF" opacity="0.16"/>
<rect x="240" y="160" width="300" height="12" rx="6" fill="#FFFFFF" opacity="0.10"/>
<rect x="240" y="200" width="380" height="160" rx="22" fill="#FFFFFF" opacity="0.06"/>
<path d="M266 332V230M312 332V254M358 332V274M404 332V248M450 332V292M496 332V260M542 332V242M588 332V276" stroke="#2AABEE" stroke-width="16" stroke-linecap="round" opacity="0.85"/>
<circle cx="640" cy="132" r="30" fill="#34C759" opacity="0.95"/>
<path d="M626 132l10 10 20-22" stroke="#FFFFFF" stroke-width="7" stroke-linecap="round" stroke-linejoin="round" opacity="0.95"/>
<rect x="240" y="372" width="120" height="34" rx="17" fill="#FFFFFF" opacity="0.06"/>
<rect x="254" y="389" width="64" height="10" rx="5" fill="#FFFFFF" opacity="0.10"/>
<circle cx="264" cy="389" r="6" fill="#FFCC00" opacity="0.95"/>
<rect x="372" y="372" width="120" height="34" rx="17" fill="#FFFFFF" opacity="0.06"/>
<rect x="386" y="389" width="64" height="10" rx="5" fill="#FFFFFF" opacity="0.10"/>
<circle cx="396" cy="389" r="6" fill="#2AABEE" opacity="0.95"/>
<rect x="504" y="372" width="120" height="34" rx="17" fill="#FFFFFF" opacity="0.06"/>
<rect x="518" y="389" width="64" height="10" rx="5" fill="#FFFFFF" opacity="0.10"/>
<circle cx="528" cy="389" r="6" fill="#34C759" opacity="0.95"/>
</svg>