<svg xmlns="http://www.w3.org/2000/svg" width="900" height="520" viewBox="0 0 900 520" fill="none">
<circle cx="760" cy="120" r="150" fill="#0C0F16" opacity="0.06"/>
<circle cx="820" cy="420" r="210" fill="#0C0F16" opacity="0.05"/>
<circle cx="520" cy="470" r="170" fill="#0C0F16" opacity="0.04"/>
<rect x="170" y="140" width="380" height="200" rx="34" fill="#FFFFFF" opacity="0.78"/>
<rect x="170" y="140" width="380" height="200" rx="34" stroke="#0C0F16" stroke-opacity="0.08"/>
<path d="M250 340l-40 38v-48" fill="#FFFFFF" opacity="0.78"/>
<rect x="210" y="178" width="280" height="14" rx="7" fill="#0C0F16" opacity="0.10"/>
<rect x="210" y="212" width="250" height="14" rx="7" fill="#0C0F16" opacity="0.10"/>
<rect x="210" y="246" width="220" height="14" rx="7" fill="#0C0F16" opacity="0.10"/>
<rect x="210" y="280" width="190" height="14" rx="7" fill="#0C0F16" opacity="0.10"/>
<rect x="380" y="270" width="360" height="190" rx="34" fill="#FFFFFF" opacity="0.78"/>
<rect x="380" y="270" width="360" height="190" rx="34" stroke="#0C0F16" stroke-opacity="0.08"/>
<path d="M610 460l40 38v-48" fill="#FFFFFF" opacity="0.78"/>
<rect x="420" y="308" width="260" height="14" rx="7" fill="#0C0F16" opacity="0.10"/>
<rect x="420" y="344" width="220" height="14" rx="7" fill="#0C0F16" opacity="0.10"/>
<rect x="420" y="380" width="180" height="14" rx="7" fill="#0C0F16" opacity="0.10"/>
<circle cx="700" cy="170" r="48" fill="#2AABEE" opacity="0.92"/>
<path d="M690 154c2-14 12-22 26-22 14 0 26 10 26 24 0 9-5 16-14 21-9 5-14 10-14 22" stroke="#FFFFFF" stroke-width="8" stroke-linecap="round" stroke-linejoin="round" opacity="0.95"/>
<circle cx="716" cy="222" r="6" fill="#FFFFFF" opacity="0.95"/>
</svg>