<svg xmlns="http://www.w3.org/2000/svg" width="900" height="520" viewBox="0 0 900 520" fill="none">
<circle cx="760" cy="120" r="150" fill="#FFFFFF" opacity="0.05"/>
<circle cx="820" cy="420" r="210" fill="#FFFFFF" opacity="0.04"/>
<circle cx="520" cy="470" r="170" fill="#FFFFFF" opacity="0.03"/>
<rect x="200" y="120" width="420" height="300" rx="34" fill="#FFFFFF" opacity="0.06"/>
<rect x="200" y="120" width="420" height="300" rx="34" stroke="#FFFFFF" stroke-opacity="0.1"/>
<rect x="234" y="154" width="220" height="16" rx="8" fill="#FFFFFF" opacity="0.16"/>
<rect x="234" y="200" width="340" height="42" rx="16" fill="#FFFFFF" opacity="0.06"/>
<rect x="252" y="216" width="250" height="10" rx="5" fill="#FFFFFF" opacity="0.1"/>
<rect x="234" y="258" width="280" height="42" rx="16" fill="#FFFFFF" opacity="0.06"/>
<rect x="252" y="274" width="190" height="10" rx="5" fill="#FFFFFF" opacity="0.1"/>
<rect x="234" y="316" width="300" height="42" rx="16" fill="#FFFFFF" opacity="0.06"/>
<rect x="252" y="332" width="210" height="10" rx="5" fill="#FFFFFF" opacity="0.1"/>
<rect x="234" y="378" width="180" height="42" rx="21" fill="#2AABEE" opacity="0.92"/>
<circle cx="264" cy="399" r="8" fill="#FFFFFF" opacity="0.9"/>
<rect x="282" y="394" width="96" height="10" rx="5" fill="#FFFFFF" opacity="0.65"/>
<path d="M660 166l170 70-170 70 28-70-28-70Z" fill="#34C759" opacity="0.92"/>
<path d="M688 236h124" stroke="#FFFFFF" stroke-width="8" stroke-linecap="round" opacity="0.9"/>
</svg>